<?xml version='1.0' encoding='utf-8'?>
<svg xmlns="http://www.w3.org/2000/svg" width="91.44mm" height="91.44mm" version="1.1" style="shape-rendering:geometricPrecision; text-rendering:geometricPrecision; image-rendering:optimizeQuality; fill-rule:evenodd; clip-rule:evenodd" viewBox="0 0 9144 9144"> <defs> <style type="text/css">  .fil0 {fill:#F0F0F0} .fil1 {fill:#011627;fill-rule:nonzero}  </style> </defs> <g id="Layer_x0020_1"> <metadata id="CorelCorpID_0Corel-Layer"/> <g id="_2744492898368"> <polygon class="fil0" points="0,0 9144,0 9144,9144 0,9144 "/> <path class="fil1" d="M2540 2980l4064 0c47,0 85,38 85,84l0 3016c0,46 -38,84 -85,84l-4064 0c-47,0 -85,-38 -85,-84l0 -3016c0,-46 38,-84 85,-84zm3979 169l-3894 0 0 2846 3894 0 0 -2846z"/> <path class="fil1" d="M2480 3124c-33,-33 -33,-86 0,-119 33,-33 86,-33 120,-1l2032 2032c33,33 33,86 0,119 -33,33 -86,33 -120,1l-2032 -2032z"/> <path class="fil1" d="M6544 3004c34,-32 87,-32 120,1 33,33 33,86 0,119l-2032 2032c-33,32 -87,32 -120,-1 -33,-33 -33,-86 1,-119l2031 -2032z"/> </g> </g> </svg>